solid OpenSCAD_Model
  facet normal -0.994498 -0.104759 -0
    outer loop
      vertex -45 -35 0
      vertex -44.781 -37.079 0
      vertex -45 -35 4
    endloop
  endfacet
  facet normal -0.994498 -0.104759 0
    outer loop
      vertex -45 -35 4
      vertex -44.781 -37.079 0
      vertex -44.781 -37.079 4
    endloop
  endfacet
  facet normal -0 -0 -1
    outer loop
      vertex -45 -35 0
      vertex -45 35 0
      vertex -44.781 -37.079 0
    endloop
  endfacet
  facet normal 0 0 -1
    outer loop
      vertex -44.781 -37.079 0
      vertex -45 35 0
      vertex -44.781 37.079 0
    endloop
  endfacet
  facet normal 0 -0 -1
    outer loop
      vertex -44.781 -37.079 0
      vertex -44.781 37.079 0
      vertex -44.135 39.067 0
    endloop
  endfacet
  facet normal 0 0 -1
    outer loop
      vertex -44.781 -37.079 0
      vertex -44.135 39.067 0
      vertex -43.09 40.878 0
    endloop
  endfacet
  facet normal 0 0 -1
    outer loop
      vertex -44.781 -37.079 0
      vertex -43.09 40.878 0
      vertex -41.691 42.431 0
    endloop
  endfacet
  facet normal 0 0 -1
    outer loop
      vertex -44.781 -37.079 0
      vertex -41.691 42.431 0
      vertex -40 43.66 0
    endloop
  endfacet
  facet normal 0 0 -1
    outer loop
      vertex -44.781 -37.079 0
      vertex -40 43.66 0
      vertex -38.09 44.511 0
    endloop
  endfacet
  facet normal 0 0 -1
    outer loop
      vertex -44.781 -37.079 0
      vertex -38.09 44.511 0
      vertex -36.045 44.945 0
    endloop
  endfacet
  facet normal 0 -0 -1
    outer loop
      vertex -34 34 0
      vertex -36.045 44.945 0
      vertex 36.045 44.945 0
    endloop
  endfacet
  facet normal 0 0 -1
    outer loop
      vertex 34 34 0
      vertex 43.09 40.878 0
      vertex 44.135 39.067 0
    endloop
  endfacet
  facet normal 0 0 -1
    outer loop
      vertex 34 34 0
      vertex 44.135 39.067 0
      vertex 44.781 37.079 0
    endloop
  endfacet
  facet normal 0 0 -1
    outer loop
      vertex 34 34 0
      vertex 44.781 37.079 0
      vertex 45 35 0
    endloop
  endfacet
  facet normal 0 0 -1
    outer loop
      vertex 34 34 0
      vertex 41.691 42.431 0
      vertex 43.09 40.878 0
    endloop
  endfacet
  facet normal -0 0 -1
    outer loop
      vertex 34 -34 0
      vertex 45 35 0
      vertex 45 -35 0
    endloop
  endfacet
  facet normal -0 0 -1
    outer loop
      vertex -44.781 -37.079 0
      vertex 45 -35 0
      vertex 44.781 -37.079 0
    endloop
  endfacet
  facet normal 0 0 -1
    outer loop
      vertex -44.781 -37.079 0
      vertex 44.781 -37.079 0
      vertex 44.135 -39.067 0
    endloop
  endfacet
  facet normal 0 0 -1
    outer loop
      vertex -44.781 -37.079 0
      vertex 44.135 -39.067 0
      vertex 43.09 -40.878 0
    endloop
  endfacet
  facet normal 0 0 -1
    outer loop
      vertex -44.781 -37.079 0
      vertex 43.09 -40.878 0
      vertex 41.691 -42.431 0
    endloop
  endfacet
  facet normal 0 0 -1
    outer loop
      vertex -44.781 -37.079 0
      vertex 41.691 -42.431 0
      vertex 40 -43.66 0
    endloop
  endfacet
  facet normal 0 0 -1
    outer loop
      vertex -44.781 -37.079 0
      vertex 40 -43.66 0
      vertex 38.09 -44.511 0
    endloop
  endfacet
  facet normal 0 0 -1
    outer loop
      vertex -44.781 -37.079 0
      vertex 38.09 -44.511 0
      vertex 36.045 -44.945 0
    endloop
  endfacet
  facet normal 0 0 -1
    outer loop
      vertex -44.781 -37.079 0
      vertex 36.045 -44.945 0
      vertex -36.045 -44.945 0
    endloop
  endfacet
  facet normal 0 0 -1
    outer loop
      vertex -44.781 -37.079 0
      vertex -36.045 -44.945 0
      vertex -38.09 -44.511 0
    endloop
  endfacet
  facet normal 0 0 -1
    outer loop
      vertex -44.781 -37.079 0
      vertex -38.09 -44.511 0
      vertex -40 -43.66 0
    endloop
  endfacet
  facet normal 0 0 -1
    outer loop
      vertex -44.781 -37.079 0
      vertex -40 -43.66 0
      vertex -41.691 -42.431 0
    endloop
  endfacet
  facet normal 0 0 -1
    outer loop
      vertex -44.781 -37.079 0
      vertex -41.691 -42.431 0
      vertex -43.09 -40.878 0
    endloop
  endfacet
  facet normal 0 0 -1
    outer loop
      vertex -44.781 -37.079 0
      vertex -43.09 -40.878 0
      vertex -44.135 -39.067 0
    endloop
  endfacet
  facet normal 0 0 -1
    outer loop
      vertex -44.781 -37.079 0
      vertex -36.045 44.945 0
      vertex -34 34 0
    endloop
  endfacet
  facet normal 0 0 -1
    outer loop
      vertex -34 -34 0
      vertex -44.781 -37.079 0
      vertex -34 34 0
    endloop
  endfacet
  facet normal -0 0 -1
    outer loop
      vertex 34 34 0
      vertex 45 35 0
      vertex 34 -34 0
    endloop
  endfacet
  facet normal 0 0 -1
    outer loop
      vertex -44.781 -37.079 0
      vertex -34 -34 0
      vertex 45 -35 0
    endloop
  endfacet
  facet normal 0 0 -1
    outer loop
      vertex -34 -34 0
      vertex 34 -34 0
      vertex 45 -35 0
    endloop
  endfacet
  facet normal 0 0 -1
    outer loop
      vertex -34 34 0
      vertex 36.045 44.945 0
      vertex 38.09 44.511 0
    endloop
  endfacet
  facet normal 0 0 -1
    outer loop
      vertex -34 34 0
      vertex 38.09 44.511 0
      vertex 40 43.66 0
    endloop
  endfacet
  facet normal 0 0 -1
    outer loop
      vertex -34 34 0
      vertex 40 43.66 0
      vertex 41.691 42.431 0
    endloop
  endfacet
  facet normal -0 0 -1
    outer loop
      vertex -34 34 0
      vertex 41.691 42.431 0
      vertex 34 34 0
    endloop
  endfacet
  facet normal -1 -0 -0
    outer loop
      vertex -45 -35 0
      vertex -45 -35 4
      vertex -45 35 0
    endloop
  endfacet
  facet normal -1 0 0
    outer loop
      vertex -45 35 0
      vertex -45 -35 4
      vertex -45 35 4
    endloop
  endfacet
  facet normal 0 -0 1
    outer loop
      vertex -45 35 4
      vertex -45 -35 4
      vertex -44.781 -37.079 4
    endloop
  endfacet
  facet normal 0 0 1
    outer loop
      vertex -43.09 -40.878 4
      vertex -45 35 4
      vertex -44.135 -39.067 4
    endloop
  endfacet
  facet normal 0 0 1
    outer loop
      vertex -44.135 -39.067 4
      vertex -45 35 4
      vertex -44.781 -37.079 4
    endloop
  endfacet
  facet normal 0 0 1
    outer loop
      vertex -41.691 -42.431 4
      vertex -45 35 4
      vertex -43.09 -40.878 4
    endloop
  endfacet
  facet normal -0 0 1
    outer loop
      vertex -41 -38 4
      vertex -45 35 4
      vertex -41.691 -42.431 4
    endloop
  endfacet
  facet normal 0 0 1
    outer loop
      vertex -41 -38 4
      vertex -40.4271 -36.2366 4
      vertex -45 35 4
    endloop
  endfacet
  facet normal 0 0 1
    outer loop
      vertex -35.5729 -39.7634 4
      vertex -37.0729 -40.8532 4
      vertex -36.045 -44.945 4
    endloop
  endfacet
  facet normal 0 0 1
    outer loop
      vertex 35.5729 -36.2366 4
      vertex 37.0729 -35.1468 4
      vertex 34 -34 4
    endloop
  endfacet
  facet normal 0 -0 1
    outer loop
      vertex 34 34 4
      vertex 34 -34 4
      vertex 37.0729 -35.1468 4
    endloop
  endfacet
  facet normal 0 0 1
    outer loop
      vertex 34 34 4
      vertex 44.135 -39.067 4
      vertex 44.781 -37.079 4
    endloop
  endfacet
  facet normal 0 0 1
    outer loop
      vertex 34 34 4
      vertex 44.781 -37.079 4
      vertex 45 -35 4
    endloop
  endfacet
  facet normal 0 -0 1
    outer loop
      vertex -37.0729 35.1468 4
      vertex -45 35 4
      vertex 45 35 4
    endloop
  endfacet
  facet normal 0 -0 1
    outer loop
      vertex 38.9271 -40.8532 4
      vertex 37.0729 -40.8532 4
      vertex 40 -43.66 4
    endloop
  endfacet
  facet normal 0 0 1
    outer loop
      vertex 34 -34 4
      vertex 36.045 -44.945 4
      vertex 35 -38 4
    endloop
  endfacet
  facet normal -0 0 1
    outer loop
      vertex 35 38 4
      vertex 35.5729 39.7634 4
      vertex -35.5729 36.2366 4
    endloop
  endfacet
  facet normal 0 0 1
    outer loop
      vertex -40.4271 39.7634 4
      vertex -38.9271 40.8532 4
      vertex -36.045 44.945 4
    endloop
  endfacet
  facet normal 0 -0 1
    outer loop
      vertex -38.09 44.511 4
      vertex -45 35 4
      vertex -36.045 44.945 4
    endloop
  endfacet
  facet normal 0 -0 1
    outer loop
      vertex -40 43.66 4
      vertex -45 35 4
      vertex -38.09 44.511 4
    endloop
  endfacet
  facet normal 0 -0 1
    outer loop
      vertex -41.691 42.431 4
      vertex -45 35 4
      vertex -40 43.66 4
    endloop
  endfacet
  facet normal 0 -0 1
    outer loop
      vertex -43.09 40.878 4
      vertex -45 35 4
      vertex -41.691 42.431 4
    endloop
  endfacet
  facet normal 0 -0 1
    outer loop
      vertex -44.135 39.067 4
      vertex -45 35 4
      vertex -43.09 40.878 4
    endloop
  endfacet
  facet normal 0 -0 1
    outer loop
      vertex -44.781 37.079 4
      vertex -45 35 4
      vertex -44.135 39.067 4
    endloop
  endfacet
  facet normal 0 0 1
    outer loop
      vertex -40 -43.66 4
      vertex -40.4271 -39.7634 4
      vertex -41.691 -42.431 4
    endloop
  endfacet
  facet normal -0 0 1
    outer loop
      vertex -40.4271 -39.7634 4
      vertex -41 -38 4
      vertex -41.691 -42.431 4
    endloop
  endfacet
  facet normal 0 0 1
    outer loop
      vertex -35.5729 36.2366 4
      vertex 41.691 42.431 4
      vertex 40 43.66 4
    endloop
  endfacet
  facet normal 0 0 1
    outer loop
      vertex -35.5729 36.2366 4
      vertex 40 43.66 4
      vertex 38.09 44.511 4
    endloop
  endfacet
  facet normal -0 0 1
    outer loop
      vertex -38.9271 -35.1468 4
      vertex -45 35 4
      vertex -40.4271 -36.2366 4
    endloop
  endfacet
  facet normal 0 0 1
    outer loop
      vertex -35.5729 36.2366 4
      vertex 37.0729 40.8532 4
      vertex 41.691 42.431 4
    endloop
  endfacet
  facet normal -0 0 1
    outer loop
      vertex -34 -34 4
      vertex -45 35 4
      vertex -37.0729 -35.1468 4
    endloop
  endfacet
  facet normal 0 0 1
    outer loop
      vertex -37.0729 -40.8532 4
      vertex -38.9271 -40.8532 4
      vertex -38.09 -44.511 4
    endloop
  endfacet
  facet normal 0 0 1
    outer loop
      vertex 36.045 -44.945 4
      vertex -37.0729 -35.1468 4
      vertex -35.5729 -36.2366 4
    endloop
  endfacet
  facet normal -0 0 1
    outer loop
      vertex 36.045 -44.945 4
      vertex -35 -38 4
      vertex -36.045 -44.945 4
    endloop
  endfacet
  facet normal 0 0 1
    outer loop
      vertex 36.045 -44.945 4
      vertex -35.5729 -36.2366 4
      vertex -35 -38 4
    endloop
  endfacet
  facet normal 0 0 1
    outer loop
      vertex -35 -38 4
      vertex -35.5729 -39.7634 4
      vertex -36.045 -44.945 4
    endloop
  endfacet
  facet normal 0 0 1
    outer loop
      vertex -36.045 -44.945 4
      vertex -37.0729 -40.8532 4
      vertex -38.09 -44.511 4
    endloop
  endfacet
  facet normal 0 0 1
    outer loop
      vertex -38.9271 -35.1468 4
      vertex -37.0729 -35.1468 4
      vertex -45 35 4
    endloop
  endfacet
  facet normal 0 0 1
    outer loop
      vertex -35.5729 36.2366 4
      vertex 38.09 44.511 4
      vertex 36.045 44.945 4
    endloop
  endfacet
  facet normal 0 -0 1
    outer loop
      vertex -41 38 4
      vertex -45 35 4
      vertex -40.4271 36.2366 4
    endloop
  endfacet
  facet normal 0 0 1
    outer loop
      vertex -40.4271 39.7634 4
      vertex -45 35 4
      vertex -41 38 4
    endloop
  endfacet
  facet normal 0 0 1
    outer loop
      vertex -38.9271 40.8532 4
      vertex -37.0729 40.8532 4
      vertex -36.045 44.945 4
    endloop
  endfacet
  facet normal 0 0 1
    outer loop
      vertex -36.045 44.945 4
      vertex -45 35 4
      vertex -40.4271 39.7634 4
    endloop
  endfacet
  facet normal 0 -0 1
    outer loop
      vertex -35 38 4
      vertex -35.5729 36.2366 4
      vertex 36.045 44.945 4
    endloop
  endfacet
  facet normal 0 -0 1
    outer loop
      vertex -36.045 44.945 4
      vertex -37.0729 40.8532 4
      vertex 36.045 44.945 4
    endloop
  endfacet
  facet normal 0 0 1
    outer loop
      vertex -37.0729 40.8532 4
      vertex -35.5729 39.7634 4
      vertex 36.045 44.945 4
    endloop
  endfacet
  facet normal 0 0 1
    outer loop
      vertex -35.5729 39.7634 4
      vertex -35 38 4
      vertex 36.045 44.945 4
    endloop
  endfacet
  facet normal 0 0 1
    outer loop
      vertex -37.0729 35.1468 4
      vertex -38.9271 35.1468 4
      vertex -45 35 4
    endloop
  endfacet
  facet normal 0 -0 1
    outer loop
      vertex 37.0729 35.1468 4
      vertex -37.0729 35.1468 4
      vertex 45 35 4
    endloop
  endfacet
  facet normal 0 0 1
    outer loop
      vertex 34 -34 4
      vertex 35 -38 4
      vertex 35.5729 -36.2366 4
    endloop
  endfacet
  facet normal 0 0 1
    outer loop
      vertex 36.045 -44.945 4
      vertex -34 -34 4
      vertex -37.0729 -35.1468 4
    endloop
  endfacet
  facet normal 0 0 1
    outer loop
      vertex 45 35 4
      vertex -45 35 4
      vertex -34 34 4
    endloop
  endfacet
  facet normal 0 0 1
    outer loop
      vertex 45 35 4
      vertex 34 34 4
      vertex 45 -35 4
    endloop
  endfacet
  facet normal 0 0 1
    outer loop
      vertex 45 35 4
      vertex -34 34 4
      vertex 34 34 4
    endloop
  endfacet
  facet normal 0 0 1
    outer loop
      vertex 40.4271 -36.2366 4
      vertex 41 -38 4
      vertex 44.135 -39.067 4
    endloop
  endfacet
  facet normal -0 0 1
    outer loop
      vertex 40 -43.66 4
      vertex 35.5729 -39.7634 4
      vertex 38.09 -44.511 4
    endloop
  endfacet
  facet normal -0 0 1
    outer loop
      vertex 35.5729 36.2366 4
      vertex 35 38 4
      vertex -35.5729 36.2366 4
    endloop
  endfacet
  facet normal 0 0 1
    outer loop
      vertex 35.5729 36.2366 4
      vertex -35.5729 36.2366 4
      vertex -37.0729 35.1468 4
    endloop
  endfacet
  facet normal 0 -0 1
    outer loop
      vertex 40.4271 -39.7634 4
      vertex 38.9271 -40.8532 4
      vertex 41.691 -42.431 4
    endloop
  endfacet
  facet normal 0 0 1
    outer loop
      vertex -34 -34 4
      vertex -34 34 4
      vertex -45 35 4
    endloop
  endfacet
  facet normal 0 0 1
    outer loop
      vertex 34 34 4
      vertex 37.0729 -35.1468 4
      vertex 38.9271 -35.1468 4
    endloop
  endfacet
  facet normal 0 -0 1
    outer loop
      vertex 41 -38 4
      vertex 40.4271 -39.7634 4
      vertex 43.09 -40.878 4
    endloop
  endfacet
  facet normal 0 0 1
    outer loop
      vertex 34 34 4
      vertex 38.9271 -35.1468 4
      vertex 40.4271 -36.2366 4
    endloop
  endfacet
  facet normal 0 0 1
    outer loop
      vertex 34 34 4
      vertex 40.4271 -36.2366 4
      vertex 44.135 -39.067 4
    endloop
  endfacet
  facet normal -0 0 1
    outer loop
      vertex 44.135 -39.067 4
      vertex 41 -38 4
      vertex 43.09 -40.878 4
    endloop
  endfacet
  facet normal -0 0 1
    outer loop
      vertex 43.09 -40.878 4
      vertex 40.4271 -39.7634 4
      vertex 41.691 -42.431 4
    endloop
  endfacet
  facet normal -0 0 1
    outer loop
      vertex 41.691 -42.431 4
      vertex 38.9271 -40.8532 4
      vertex 40 -43.66 4
    endloop
  endfacet
  facet normal 0 -0 1
    outer loop
      vertex 40.4271 36.2366 4
      vertex 38.9271 35.1468 4
      vertex 45 35 4
    endloop
  endfacet
  facet normal -0 0 1
    outer loop
      vertex 35.5729 39.7634 4
      vertex 37.0729 40.8532 4
      vertex -35.5729 36.2366 4
    endloop
  endfacet
  facet normal -0 -0 1
    outer loop
      vertex 37.0729 -40.8532 4
      vertex 35.5729 -39.7634 4
      vertex 40 -43.66 4
    endloop
  endfacet
  facet normal 0 -0 1
    outer loop
      vertex 41 38 4
      vertex 40.4271 36.2366 4
      vertex 44.781 37.079 4
    endloop
  endfacet
  facet normal 0 -0 1
    outer loop
      vertex 34 -34 4
      vertex -34 -34 4
      vertex 36.045 -44.945 4
    endloop
  endfacet
  facet normal 0 -0 1
    outer loop
      vertex 41.691 42.431 4
      vertex 37.0729 40.8532 4
      vertex 43.09 40.878 4
    endloop
  endfacet
  facet normal 0 0 1
    outer loop
      vertex 35.5729 -39.7634 4
      vertex 36.045 -44.945 4
      vertex 38.09 -44.511 4
    endloop
  endfacet
  facet normal 0 0 1
    outer loop
      vertex 37.0729 40.8532 4
      vertex 38.9271 40.8532 4
      vertex 43.09 40.878 4
    endloop
  endfacet
  facet normal 0 0 1
    outer loop
      vertex 35 -38 4
      vertex 36.045 -44.945 4
      vertex 35.5729 -39.7634 4
    endloop
  endfacet
  facet normal 0 -0 1
    outer loop
      vertex 43.09 40.878 4
      vertex 40.4271 39.7634 4
      vertex 44.135 39.067 4
    endloop
  endfacet
  facet normal 0 -0 1
    outer loop
      vertex 44.135 39.067 4
      vertex 41 38 4
      vertex 44.781 37.079 4
    endloop
  endfacet
  facet normal 0 -0 1
    outer loop
      vertex 44.781 37.079 4
      vertex 40.4271 36.2366 4
      vertex 45 35 4
    endloop
  endfacet
  facet normal 0 -0 1
    outer loop
      vertex 35.5729 36.2366 4
      vertex -37.0729 35.1468 4
      vertex 37.0729 35.1468 4
    endloop
  endfacet
  facet normal 0 -0 1
    outer loop
      vertex 38.9271 35.1468 4
      vertex 37.0729 35.1468 4
      vertex 45 35 4
    endloop
  endfacet
  facet normal 0 -0 1
    outer loop
      vertex -38.9271 -40.8532 4
      vertex -40 -43.66 4
      vertex -38.09 -44.511 4
    endloop
  endfacet
  facet normal -0 0 1
    outer loop
      vertex -38.9271 -40.8532 4
      vertex -40.4271 -39.7634 4
      vertex -40 -43.66 4
    endloop
  endfacet
  facet normal 0 0 1
    outer loop
      vertex 38.9271 40.8532 4
      vertex 40.4271 39.7634 4
      vertex 43.09 40.878 4
    endloop
  endfacet
  facet normal 0 0 1
    outer loop
      vertex 40.4271 39.7634 4
      vertex 41 38 4
      vertex 44.135 39.067 4
    endloop
  endfacet
  facet normal -0 0 1
    outer loop
      vertex -38.9271 35.1468 4
      vertex -40.4271 36.2366 4
      vertex -45 35 4
    endloop
  endfacet
  facet normal -0.951048 -0.309043 -0
    outer loop
      vertex -44.781 -37.079 0
      vertex -44.135 -39.067 0
      vertex -44.781 -37.079 4
    endloop
  endfacet
  facet normal -0.951048 -0.309043 0
    outer loop
      vertex -44.781 -37.079 4
      vertex -44.135 -39.067 0
      vertex -44.135 -39.067 4
    endloop
  endfacet
  facet normal -0.866146 -0.499791 -0
    outer loop
      vertex -44.135 -39.067 0
      vertex -43.09 -40.878 0
      vertex -44.135 -39.067 4
    endloop
  endfacet
  facet normal -0.866146 -0.499791 0
    outer loop
      vertex -44.135 -39.067 4
      vertex -43.09 -40.878 0
      vertex -43.09 -40.878 4
    endloop
  endfacet
  facet normal -0.742985 -0.669308 -0
    outer loop
      vertex -43.09 -40.878 0
      vertex -41.691 -42.431 0
      vertex -43.09 -40.878 4
    endloop
  endfacet
  facet normal -0.742985 -0.669308 0
    outer loop
      vertex -43.09 -40.878 4
      vertex -41.691 -42.431 0
      vertex -41.691 -42.431 4
    endloop
  endfacet
  facet normal -0.587916 -0.808922 0
    outer loop
      vertex -41.691 -42.431 4
      vertex -41.691 -42.431 0
      vertex -40 -43.66 0
    endloop
  endfacet
  facet normal -0.587916 -0.808922 0
    outer loop
      vertex -40 -43.66 4
      vertex -41.691 -42.431 4
      vertex -40 -43.66 0
    endloop
  endfacet
  facet normal -0.406981 -0.913436 0
    outer loop
      vertex -40 -43.66 4
      vertex -40 -43.66 0
      vertex -38.09 -44.511 0
    endloop
  endfacet
  facet normal -0.406981 -0.913436 0
    outer loop
      vertex -38.09 -44.511 4
      vertex -40 -43.66 4
      vertex -38.09 -44.511 0
    endloop
  endfacet
  facet normal -0.207601 -0.978214 0
    outer loop
      vertex -38.09 -44.511 4
      vertex -38.09 -44.511 0
      vertex -36.045 -44.945 0
    endloop
  endfacet
  facet normal -0.207601 -0.978214 0
    outer loop
      vertex -36.045 -44.945 4
      vertex -38.09 -44.511 4
      vertex -36.045 -44.945 0
    endloop
  endfacet
  facet normal 0 -1 0
    outer loop
      vertex -36.045 -44.945 4
      vertex -36.045 -44.945 0
      vertex 36.045 -44.945 0
    endloop
  endfacet
  facet normal 0 -1 0
    outer loop
      vertex 36.045 -44.945 4
      vertex -36.045 -44.945 4
      vertex 36.045 -44.945 0
    endloop
  endfacet
  facet normal 0.207601 -0.978214 0
    outer loop
      vertex 36.045 -44.945 4
      vertex 36.045 -44.945 0
      vertex 38.09 -44.511 0
    endloop
  endfacet
  facet normal 0.207601 -0.978214 0
    outer loop
      vertex 38.09 -44.511 4
      vertex 36.045 -44.945 4
      vertex 38.09 -44.511 0
    endloop
  endfacet
  facet normal 0.406981 -0.913436 0
    outer loop
      vertex 38.09 -44.511 4
      vertex 38.09 -44.511 0
      vertex 40 -43.66 0
    endloop
  endfacet
  facet normal 0.406981 -0.913436 0
    outer loop
      vertex 40 -43.66 4
      vertex 38.09 -44.511 4
      vertex 40 -43.66 0
    endloop
  endfacet
  facet normal 0.587916 -0.808922 0
    outer loop
      vertex 40 -43.66 4
      vertex 40 -43.66 0
      vertex 41.691 -42.431 0
    endloop
  endfacet
  facet normal 0.587916 -0.808922 0
    outer loop
      vertex 41.691 -42.431 4
      vertex 40 -43.66 4
      vertex 41.691 -42.431 0
    endloop
  endfacet
  facet normal 0.742985 -0.669308 0
    outer loop
      vertex 41.691 -42.431 4
      vertex 41.691 -42.431 0
      vertex 43.09 -40.878 0
    endloop
  endfacet
  facet normal 0.742985 -0.669308 0
    outer loop
      vertex 43.09 -40.878 4
      vertex 41.691 -42.431 4
      vertex 43.09 -40.878 0
    endloop
  endfacet
  facet normal 0.866146 -0.499791 0
    outer loop
      vertex 43.09 -40.878 4
      vertex 43.09 -40.878 0
      vertex 44.135 -39.067 0
    endloop
  endfacet
  facet normal 0.866146 -0.499791 0
    outer loop
      vertex 44.135 -39.067 4
      vertex 43.09 -40.878 4
      vertex 44.135 -39.067 0
    endloop
  endfacet
  facet normal 0.951048 -0.309043 0
    outer loop
      vertex 44.135 -39.067 4
      vertex 44.135 -39.067 0
      vertex 44.781 -37.079 0
    endloop
  endfacet
  facet normal 0.951048 -0.309043 0
    outer loop
      vertex 44.781 -37.079 4
      vertex 44.135 -39.067 4
      vertex 44.781 -37.079 0
    endloop
  endfacet
  facet normal 0.994498 -0.104759 0
    outer loop
      vertex 44.781 -37.079 4
      vertex 44.781 -37.079 0
      vertex 45 -35 0
    endloop
  endfacet
  facet normal 0.994498 -0.104759 0
    outer loop
      vertex 45 -35 4
      vertex 44.781 -37.079 4
      vertex 45 -35 0
    endloop
  endfacet
  facet normal 1 0 -0
    outer loop
      vertex 45 -35 4
      vertex 45 -35 0
      vertex 45 35 0
    endloop
  endfacet
  facet normal 1 0 0
    outer loop
      vertex 45 35 4
      vertex 45 -35 4
      vertex 45 35 0
    endloop
  endfacet
  facet normal 0.994498 0.104759 0
    outer loop
      vertex 45 35 0
      vertex 44.781 37.079 0
      vertex 44.781 37.079 4
    endloop
  endfacet
  facet normal 0.994498 0.104759 -0
    outer loop
      vertex 45 35 4
      vertex 45 35 0
      vertex 44.781 37.079 4
    endloop
  endfacet
  facet normal 0.951048 0.309043 0
    outer loop
      vertex 44.781 37.079 0
      vertex 44.135 39.067 0
      vertex 44.135 39.067 4
    endloop
  endfacet
  facet normal 0.951048 0.309043 -0
    outer loop
      vertex 44.781 37.079 4
      vertex 44.781 37.079 0
      vertex 44.135 39.067 4
    endloop
  endfacet
  facet normal 0.866146 0.499791 0
    outer loop
      vertex 44.135 39.067 0
      vertex 43.09 40.878 0
      vertex 43.09 40.878 4
    endloop
  endfacet
  facet normal 0.866146 0.499791 -0
    outer loop
      vertex 44.135 39.067 4
      vertex 44.135 39.067 0
      vertex 43.09 40.878 4
    endloop
  endfacet
  facet normal 0.742985 0.669308 0
    outer loop
      vertex 43.09 40.878 0
      vertex 41.691 42.431 0
      vertex 41.691 42.431 4
    endloop
  endfacet
  facet normal 0.742985 0.669308 -0
    outer loop
      vertex 43.09 40.878 4
      vertex 43.09 40.878 0
      vertex 41.691 42.431 4
    endloop
  endfacet
  facet normal 0.587916 0.808922 0
    outer loop
      vertex 40 43.66 0
      vertex 40 43.66 4
      vertex 41.691 42.431 0
    endloop
  endfacet
  facet normal 0.587916 0.808922 0
    outer loop
      vertex 41.691 42.431 0
      vertex 40 43.66 4
      vertex 41.691 42.431 4
    endloop
  endfacet
  facet normal 0.406981 0.913436 0
    outer loop
      vertex 38.09 44.511 0
      vertex 38.09 44.511 4
      vertex 40 43.66 0
    endloop
  endfacet
  facet normal 0.406981 0.913436 0
    outer loop
      vertex 40 43.66 0
      vertex 38.09 44.511 4
      vertex 40 43.66 4
    endloop
  endfacet
  facet normal 0.207601 0.978214 0
    outer loop
      vertex 36.045 44.945 0
      vertex 36.045 44.945 4
      vertex 38.09 44.511 0
    endloop
  endfacet
  facet normal 0.207601 0.978214 0
    outer loop
      vertex 38.09 44.511 0
      vertex 36.045 44.945 4
      vertex 38.09 44.511 4
    endloop
  endfacet
  facet normal 0 1 0
    outer loop
      vertex -36.045 44.945 0
      vertex -36.045 44.945 4
      vertex 36.045 44.945 0
    endloop
  endfacet
  facet normal 0 1 0
    outer loop
      vertex 36.045 44.945 0
      vertex -36.045 44.945 4
      vertex 36.045 44.945 4
    endloop
  endfacet
  facet normal -0.207601 0.978214 0
    outer loop
      vertex -38.09 44.511 0
      vertex -38.09 44.511 4
      vertex -36.045 44.945 0
    endloop
  endfacet
  facet normal -0.207601 0.978214 0
    outer loop
      vertex -36.045 44.945 0
      vertex -38.09 44.511 4
      vertex -36.045 44.945 4
    endloop
  endfacet
  facet normal -0.406981 0.913436 0
    outer loop
      vertex -40 43.66 0
      vertex -40 43.66 4
      vertex -38.09 44.511 0
    endloop
  endfacet
  facet normal -0.406981 0.913436 0
    outer loop
      vertex -38.09 44.511 0
      vertex -40 43.66 4
      vertex -38.09 44.511 4
    endloop
  endfacet
  facet normal -0.587916 0.808922 0
    outer loop
      vertex -41.691 42.431 0
      vertex -41.691 42.431 4
      vertex -40 43.66 0
    endloop
  endfacet
  facet normal -0.587916 0.808922 0
    outer loop
      vertex -40 43.66 0
      vertex -41.691 42.431 4
      vertex -40 43.66 4
    endloop
  endfacet
  facet normal -0.742985 0.669308 0
    outer loop
      vertex -43.09 40.878 0
      vertex -43.09 40.878 4
      vertex -41.691 42.431 0
    endloop
  endfacet
  facet normal -0.742985 0.669308 0
    outer loop
      vertex -41.691 42.431 0
      vertex -43.09 40.878 4
      vertex -41.691 42.431 4
    endloop
  endfacet
  facet normal -0.866146 0.499791 0
    outer loop
      vertex -44.135 39.067 0
      vertex -44.135 39.067 4
      vertex -43.09 40.878 0
    endloop
  endfacet
  facet normal -0.866146 0.499791 0
    outer loop
      vertex -43.09 40.878 0
      vertex -44.135 39.067 4
      vertex -43.09 40.878 4
    endloop
  endfacet
  facet normal -0.951048 0.309043 0
    outer loop
      vertex -44.781 37.079 0
      vertex -44.781 37.079 4
      vertex -44.135 39.067 0
    endloop
  endfacet
  facet normal -0.951048 0.309043 0
    outer loop
      vertex -44.135 39.067 0
      vertex -44.781 37.079 4
      vertex -44.135 39.067 4
    endloop
  endfacet
  facet normal -0.994498 0.104759 0
    outer loop
      vertex -45 35 0
      vertex -45 35 4
      vertex -44.781 37.079 0
    endloop
  endfacet
  facet normal -0.994498 0.104759 0
    outer loop
      vertex -44.781 37.079 0
      vertex -45 35 4
      vertex -44.781 37.079 4
    endloop
  endfacet
  facet normal 1 0 0
    outer loop
      vertex -34 34 0
      vertex -34 34 4
      vertex -34 -34 4
    endloop
  endfacet
  facet normal 1 0 0
    outer loop
      vertex -34 -34 0
      vertex -34 34 0
      vertex -34 -34 4
    endloop
  endfacet
  facet normal 0 -1 0
    outer loop
      vertex 34 34 0
      vertex 34 34 4
      vertex -34 34 4
    endloop
  endfacet
  facet normal -0 -1 -0
    outer loop
      vertex -34 34 0
      vertex 34 34 0
      vertex -34 34 4
    endloop
  endfacet
  facet normal -1 0 0
    outer loop
      vertex 34 34 4
      vertex 34 34 0
      vertex 34 -34 4
    endloop
  endfacet
  facet normal -1 0 0
    outer loop
      vertex 34 -34 4
      vertex 34 34 0
      vertex 34 -34 0
    endloop
  endfacet
  facet normal 0 1 0
    outer loop
      vertex 34 -34 4
      vertex 34 -34 0
      vertex -34 -34 4
    endloop
  endfacet
  facet normal 0 1 -0
    outer loop
      vertex -34 -34 4
      vertex 34 -34 0
      vertex -34 -34 0
    endloop
  endfacet
  facet normal 0.951057 0.309017 0
    outer loop
      vertex -41 -38 4
      vertex -40.4271 -39.7634 4
      vertex -40.4271 -39.7634 1
    endloop
  endfacet
  facet normal 0.951057 0.309017 0
    outer loop
      vertex -41 -38 1
      vertex -41 -38 4
      vertex -40.4271 -39.7634 1
    endloop
  endfacet
  facet normal 0.587785 0.809017 -0
    outer loop
      vertex -38.9271 -40.8532 4
      vertex -38.9271 -40.8532 1
      vertex -40.4271 -39.7634 4
    endloop
  endfacet
  facet normal 0.587785 0.809017 -0
    outer loop
      vertex -40.4271 -39.7634 4
      vertex -38.9271 -40.8532 1
      vertex -40.4271 -39.7634 1
    endloop
  endfacet
  facet normal 0 1 0
    outer loop
      vertex -37.0729 -40.8532 4
      vertex -37.0729 -40.8532 1
      vertex -38.9271 -40.8532 4
    endloop
  endfacet
  facet normal 0 1 -0
    outer loop
      vertex -38.9271 -40.8532 4
      vertex -37.0729 -40.8532 1
      vertex -38.9271 -40.8532 1
    endloop
  endfacet
  facet normal -0.587785 0.809017 0
    outer loop
      vertex -35.5729 -39.7634 4
      vertex -35.5729 -39.7634 1
      vertex -37.0729 -40.8532 4
    endloop
  endfacet
  facet normal -0.587785 0.809017 0
    outer loop
      vertex -37.0729 -40.8532 4
      vertex -35.5729 -39.7634 1
      vertex -37.0729 -40.8532 1
    endloop
  endfacet
  facet normal -0.951057 0.309017 0
    outer loop
      vertex -35 -38 4
      vertex -35 -38 1
      vertex -35.5729 -39.7634 4
    endloop
  endfacet
  facet normal -0.951057 0.309017 0
    outer loop
      vertex -35.5729 -39.7634 4
      vertex -35 -38 1
      vertex -35.5729 -39.7634 1
    endloop
  endfacet
  facet normal -0.951057 -0.309017 0
    outer loop
      vertex -35 -38 4
      vertex -35.5729 -36.2366 4
      vertex -35 -38 1
    endloop
  endfacet
  facet normal -0.951057 -0.309017 0
    outer loop
      vertex -35 -38 1
      vertex -35.5729 -36.2366 4
      vertex -35.5729 -36.2366 1
    endloop
  endfacet
  facet normal -0.587785 -0.809017 -0
    outer loop
      vertex -35.5729 -36.2366 1
      vertex -35.5729 -36.2366 4
      vertex -37.0729 -35.1468 4
    endloop
  endfacet
  facet normal -0.587785 -0.809017 -0
    outer loop
      vertex -37.0729 -35.1468 1
      vertex -35.5729 -36.2366 1
      vertex -37.0729 -35.1468 4
    endloop
  endfacet
  facet normal 0 -1 0
    outer loop
      vertex -37.0729 -35.1468 1
      vertex -37.0729 -35.1468 4
      vertex -38.9271 -35.1468 4
    endloop
  endfacet
  facet normal -0 -1 -0
    outer loop
      vertex -38.9271 -35.1468 1
      vertex -37.0729 -35.1468 1
      vertex -38.9271 -35.1468 4
    endloop
  endfacet
  facet normal 0.587785 -0.809017 0
    outer loop
      vertex -38.9271 -35.1468 1
      vertex -38.9271 -35.1468 4
      vertex -40.4271 -36.2366 4
    endloop
  endfacet
  facet normal 0.587785 -0.809017 0
    outer loop
      vertex -40.4271 -36.2366 1
      vertex -38.9271 -35.1468 1
      vertex -40.4271 -36.2366 4
    endloop
  endfacet
  facet normal 0.951057 -0.309017 0
    outer loop
      vertex -40.4271 -36.2366 1
      vertex -40.4271 -36.2366 4
      vertex -41 -38 4
    endloop
  endfacet
  facet normal 0.951057 -0.309017 0
    outer loop
      vertex -41 -38 1
      vertex -40.4271 -36.2366 1
      vertex -41 -38 4
    endloop
  endfacet
  facet normal 0.951057 0.309017 0
    outer loop
      vertex -41 38 4
      vertex -40.4271 36.2366 4
      vertex -40.4271 36.2366 1
    endloop
  endfacet
  facet normal 0.951057 0.309017 0
    outer loop
      vertex -41 38 1
      vertex -41 38 4
      vertex -40.4271 36.2366 1
    endloop
  endfacet
  facet normal 0.587785 0.809017 -0
    outer loop
      vertex -38.9271 35.1468 4
      vertex -38.9271 35.1468 1
      vertex -40.4271 36.2366 4
    endloop
  endfacet
  facet normal 0.587785 0.809017 -0
    outer loop
      vertex -40.4271 36.2366 4
      vertex -38.9271 35.1468 1
      vertex -40.4271 36.2366 1
    endloop
  endfacet
  facet normal 0 1 0
    outer loop
      vertex -37.0729 35.1468 4
      vertex -37.0729 35.1468 1
      vertex -38.9271 35.1468 4
    endloop
  endfacet
  facet normal 0 1 -0
    outer loop
      vertex -38.9271 35.1468 4
      vertex -37.0729 35.1468 1
      vertex -38.9271 35.1468 1
    endloop
  endfacet
  facet normal -0.587785 0.809017 0
    outer loop
      vertex -35.5729 36.2366 4
      vertex -35.5729 36.2366 1
      vertex -37.0729 35.1468 4
    endloop
  endfacet
  facet normal -0.587785 0.809017 0
    outer loop
      vertex -37.0729 35.1468 4
      vertex -35.5729 36.2366 1
      vertex -37.0729 35.1468 1
    endloop
  endfacet
  facet normal -0.951057 0.309017 0
    outer loop
      vertex -35 38 4
      vertex -35 38 1
      vertex -35.5729 36.2366 4
    endloop
  endfacet
  facet normal -0.951057 0.309017 0
    outer loop
      vertex -35.5729 36.2366 4
      vertex -35 38 1
      vertex -35.5729 36.2366 1
    endloop
  endfacet
  facet normal -0.951057 -0.309017 0
    outer loop
      vertex -35 38 4
      vertex -35.5729 39.7634 4
      vertex -35 38 1
    endloop
  endfacet
  facet normal -0.951057 -0.309017 0
    outer loop
      vertex -35 38 1
      vertex -35.5729 39.7634 4
      vertex -35.5729 39.7634 1
    endloop
  endfacet
  facet normal -0.587785 -0.809017 -0
    outer loop
      vertex -35.5729 39.7634 1
      vertex -35.5729 39.7634 4
      vertex -37.0729 40.8532 4
    endloop
  endfacet
  facet normal -0.587785 -0.809017 -0
    outer loop
      vertex -37.0729 40.8532 1
      vertex -35.5729 39.7634 1
      vertex -37.0729 40.8532 4
    endloop
  endfacet
  facet normal 0 -1 0
    outer loop
      vertex -37.0729 40.8532 1
      vertex -37.0729 40.8532 4
      vertex -38.9271 40.8532 4
    endloop
  endfacet
  facet normal -0 -1 -0
    outer loop
      vertex -38.9271 40.8532 1
      vertex -37.0729 40.8532 1
      vertex -38.9271 40.8532 4
    endloop
  endfacet
  facet normal 0.587785 -0.809017 0
    outer loop
      vertex -38.9271 40.8532 1
      vertex -38.9271 40.8532 4
      vertex -40.4271 39.7634 4
    endloop
  endfacet
  facet normal 0.587785 -0.809017 0
    outer loop
      vertex -40.4271 39.7634 1
      vertex -38.9271 40.8532 1
      vertex -40.4271 39.7634 4
    endloop
  endfacet
  facet normal 0.951057 -0.309017 0
    outer loop
      vertex -40.4271 39.7634 1
      vertex -40.4271 39.7634 4
      vertex -41 38 4
    endloop
  endfacet
  facet normal 0.951057 -0.309017 0
    outer loop
      vertex -41 38 1
      vertex -40.4271 39.7634 1
      vertex -41 38 4
    endloop
  endfacet
  facet normal 0.951057 0.309017 0
    outer loop
      vertex 35 -38 4
      vertex 35.5729 -39.7634 4
      vertex 35.5729 -39.7634 1
    endloop
  endfacet
  facet normal 0.951057 0.309017 0
    outer loop
      vertex 35 -38 1
      vertex 35 -38 4
      vertex 35.5729 -39.7634 1
    endloop
  endfacet
  facet normal 0.587785 0.809017 -0
    outer loop
      vertex 37.0729 -40.8532 4
      vertex 37.0729 -40.8532 1
      vertex 35.5729 -39.7634 4
    endloop
  endfacet
  facet normal 0.587785 0.809017 -0
    outer loop
      vertex 35.5729 -39.7634 4
      vertex 37.0729 -40.8532 1
      vertex 35.5729 -39.7634 1
    endloop
  endfacet
  facet normal 0 1 0
    outer loop
      vertex 38.9271 -40.8532 4
      vertex 38.9271 -40.8532 1
      vertex 37.0729 -40.8532 4
    endloop
  endfacet
  facet normal 0 1 -0
    outer loop
      vertex 37.0729 -40.8532 4
      vertex 38.9271 -40.8532 1
      vertex 37.0729 -40.8532 1
    endloop
  endfacet
  facet normal -0.587785 0.809017 0
    outer loop
      vertex 40.4271 -39.7634 4
      vertex 40.4271 -39.7634 1
      vertex 38.9271 -40.8532 4
    endloop
  endfacet
  facet normal -0.587785 0.809017 0
    outer loop
      vertex 38.9271 -40.8532 4
      vertex 40.4271 -39.7634 1
      vertex 38.9271 -40.8532 1
    endloop
  endfacet
  facet normal -0.951057 0.309017 0
    outer loop
      vertex 41 -38 4
      vertex 41 -38 1
      vertex 40.4271 -39.7634 4
    endloop
  endfacet
  facet normal -0.951057 0.309017 0
    outer loop
      vertex 40.4271 -39.7634 4
      vertex 41 -38 1
      vertex 40.4271 -39.7634 1
    endloop
  endfacet
  facet normal -0.951057 -0.309017 0
    outer loop
      vertex 41 -38 4
      vertex 40.4271 -36.2366 4
      vertex 41 -38 1
    endloop
  endfacet
  facet normal -0.951057 -0.309017 0
    outer loop
      vertex 41 -38 1
      vertex 40.4271 -36.2366 4
      vertex 40.4271 -36.2366 1
    endloop
  endfacet
  facet normal -0.587785 -0.809017 -0
    outer loop
      vertex 40.4271 -36.2366 1
      vertex 40.4271 -36.2366 4
      vertex 38.9271 -35.1468 4
    endloop
  endfacet
  facet normal -0.587785 -0.809017 -0
    outer loop
      vertex 38.9271 -35.1468 1
      vertex 40.4271 -36.2366 1
      vertex 38.9271 -35.1468 4
    endloop
  endfacet
  facet normal 0 -1 0
    outer loop
      vertex 38.9271 -35.1468 1
      vertex 38.9271 -35.1468 4
      vertex 37.0729 -35.1468 4
    endloop
  endfacet
  facet normal -0 -1 -0
    outer loop
      vertex 37.0729 -35.1468 1
      vertex 38.9271 -35.1468 1
      vertex 37.0729 -35.1468 4
    endloop
  endfacet
  facet normal 0.587785 -0.809017 0
    outer loop
      vertex 37.0729 -35.1468 1
      vertex 37.0729 -35.1468 4
      vertex 35.5729 -36.2366 4
    endloop
  endfacet
  facet normal 0.587785 -0.809017 0
    outer loop
      vertex 35.5729 -36.2366 1
      vertex 37.0729 -35.1468 1
      vertex 35.5729 -36.2366 4
    endloop
  endfacet
  facet normal 0.951057 -0.309017 0
    outer loop
      vertex 35.5729 -36.2366 1
      vertex 35.5729 -36.2366 4
      vertex 35 -38 4
    endloop
  endfacet
  facet normal 0.951057 -0.309017 0
    outer loop
      vertex 35 -38 1
      vertex 35.5729 -36.2366 1
      vertex 35 -38 4
    endloop
  endfacet
  facet normal 0.951057 0.309017 0
    outer loop
      vertex 35 38 4
      vertex 35.5729 36.2366 4
      vertex 35.5729 36.2366 1
    endloop
  endfacet
  facet normal 0.951057 0.309017 0
    outer loop
      vertex 35 38 1
      vertex 35 38 4
      vertex 35.5729 36.2366 1
    endloop
  endfacet
  facet normal 0.587785 0.809017 -0
    outer loop
      vertex 37.0729 35.1468 4
      vertex 37.0729 35.1468 1
      vertex 35.5729 36.2366 4
    endloop
  endfacet
  facet normal 0.587785 0.809017 -0
    outer loop
      vertex 35.5729 36.2366 4
      vertex 37.0729 35.1468 1
      vertex 35.5729 36.2366 1
    endloop
  endfacet
  facet normal 0 1 0
    outer loop
      vertex 38.9271 35.1468 4
      vertex 38.9271 35.1468 1
      vertex 37.0729 35.1468 4
    endloop
  endfacet
  facet normal 0 1 -0
    outer loop
      vertex 37.0729 35.1468 4
      vertex 38.9271 35.1468 1
      vertex 37.0729 35.1468 1
    endloop
  endfacet
  facet normal -0.587785 0.809017 0
    outer loop
      vertex 40.4271 36.2366 4
      vertex 40.4271 36.2366 1
      vertex 38.9271 35.1468 4
    endloop
  endfacet
  facet normal -0.587785 0.809017 0
    outer loop
      vertex 38.9271 35.1468 4
      vertex 40.4271 36.2366 1
      vertex 38.9271 35.1468 1
    endloop
  endfacet
  facet normal -0.951057 0.309017 0
    outer loop
      vertex 41 38 4
      vertex 41 38 1
      vertex 40.4271 36.2366 4
    endloop
  endfacet
  facet normal -0.951057 0.309017 0
    outer loop
      vertex 40.4271 36.2366 4
      vertex 41 38 1
      vertex 40.4271 36.2366 1
    endloop
  endfacet
  facet normal -0.951057 -0.309017 0
    outer loop
      vertex 41 38 4
      vertex 40.4271 39.7634 4
      vertex 41 38 1
    endloop
  endfacet
  facet normal -0.951057 -0.309017 0
    outer loop
      vertex 41 38 1
      vertex 40.4271 39.7634 4
      vertex 40.4271 39.7634 1
    endloop
  endfacet
  facet normal -0.587785 -0.809017 -0
    outer loop
      vertex 40.4271 39.7634 1
      vertex 40.4271 39.7634 4
      vertex 38.9271 40.8532 4
    endloop
  endfacet
  facet normal -0.587785 -0.809017 -0
    outer loop
      vertex 38.9271 40.8532 1
      vertex 40.4271 39.7634 1
      vertex 38.9271 40.8532 4
    endloop
  endfacet
  facet normal 0 -1 0
    outer loop
      vertex 38.9271 40.8532 1
      vertex 38.9271 40.8532 4
      vertex 37.0729 40.8532 4
    endloop
  endfacet
  facet normal -0 -1 -0
    outer loop
      vertex 37.0729 40.8532 1
      vertex 38.9271 40.8532 1
      vertex 37.0729 40.8532 4
    endloop
  endfacet
  facet normal 0.587785 -0.809017 0
    outer loop
      vertex 37.0729 40.8532 1
      vertex 37.0729 40.8532 4
      vertex 35.5729 39.7634 4
    endloop
  endfacet
  facet normal 0.587785 -0.809017 0
    outer loop
      vertex 35.5729 39.7634 1
      vertex 37.0729 40.8532 1
      vertex 35.5729 39.7634 4
    endloop
  endfacet
  facet normal 0.951057 -0.309017 0
    outer loop
      vertex 35.5729 39.7634 1
      vertex 35.5729 39.7634 4
      vertex 35 38 4
    endloop
  endfacet
  facet normal 0.951057 -0.309017 0
    outer loop
      vertex 35 38 1
      vertex 35.5729 39.7634 1
      vertex 35 38 4
    endloop
  endfacet
  facet normal 0 0 1
    outer loop
      vertex -40.4271 -39.7634 1
      vertex -38.9271 -40.8532 1
      vertex -37.0729 -40.8532 1
    endloop
  endfacet
  facet normal 0 0 1
    outer loop
      vertex -35 -38 1
      vertex -40.4271 -39.7634 1
      vertex -35.5729 -39.7634 1
    endloop
  endfacet
  facet normal 0 0 1
    outer loop
      vertex -35.5729 -39.7634 1
      vertex -40.4271 -39.7634 1
      vertex -37.0729 -40.8532 1
    endloop
  endfacet
  facet normal 0 -0 1
    outer loop
      vertex -35.5729 -36.2366 1
      vertex -40.4271 -39.7634 1
      vertex -35 -38 1
    endloop
  endfacet
  facet normal 0 -0 1
    outer loop
      vertex -37.0729 -35.1468 1
      vertex -40.4271 -39.7634 1
      vertex -35.5729 -36.2366 1
    endloop
  endfacet
  facet normal 0 -0 1
    outer loop
      vertex -38.9271 -35.1468 1
      vertex -40.4271 -39.7634 1
      vertex -37.0729 -35.1468 1
    endloop
  endfacet
  facet normal 0 -0 1
    outer loop
      vertex -40.4271 -36.2366 1
      vertex -40.4271 -39.7634 1
      vertex -38.9271 -35.1468 1
    endloop
  endfacet
  facet normal 0 0 1
    outer loop
      vertex -41 -38 1
      vertex -40.4271 -39.7634 1
      vertex -40.4271 -36.2366 1
    endloop
  endfacet
  facet normal 0 0 1
    outer loop
      vertex -40.4271 36.2366 1
      vertex -38.9271 35.1468 1
      vertex -37.0729 35.1468 1
    endloop
  endfacet
  facet normal 0 0 1
    outer loop
      vertex -35 38 1
      vertex -40.4271 36.2366 1
      vertex -35.5729 36.2366 1
    endloop
  endfacet
  facet normal 0 0 1
    outer loop
      vertex -35.5729 36.2366 1
      vertex -40.4271 36.2366 1
      vertex -37.0729 35.1468 1
    endloop
  endfacet
  facet normal 0 -0 1
    outer loop
      vertex -35.5729 39.7634 1
      vertex -40.4271 36.2366 1
      vertex -35 38 1
    endloop
  endfacet
  facet normal 0 -0 1
    outer loop
      vertex -37.0729 40.8532 1
      vertex -40.4271 36.2366 1
      vertex -35.5729 39.7634 1
    endloop
  endfacet
  facet normal 0 -0 1
    outer loop
      vertex -38.9271 40.8532 1
      vertex -40.4271 36.2366 1
      vertex -37.0729 40.8532 1
    endloop
  endfacet
  facet normal 0 -0 1
    outer loop
      vertex -40.4271 39.7634 1
      vertex -40.4271 36.2366 1
      vertex -38.9271 40.8532 1
    endloop
  endfacet
  facet normal 0 0 1
    outer loop
      vertex -41 38 1
      vertex -40.4271 36.2366 1
      vertex -40.4271 39.7634 1
    endloop
  endfacet
  facet normal 0 0 1
    outer loop
      vertex 35.5729 -39.7634 1
      vertex 37.0729 -40.8532 1
      vertex 38.9271 -40.8532 1
    endloop
  endfacet
  facet normal 0 0 1
    outer loop
      vertex 41 -38 1
      vertex 35.5729 -39.7634 1
      vertex 40.4271 -39.7634 1
    endloop
  endfacet
  facet normal 0 0 1
    outer loop
      vertex 40.4271 -39.7634 1
      vertex 35.5729 -39.7634 1
      vertex 38.9271 -40.8532 1
    endloop
  endfacet
  facet normal 0 -0 1
    outer loop
      vertex 40.4271 -36.2366 1
      vertex 35.5729 -39.7634 1
      vertex 41 -38 1
    endloop
  endfacet
  facet normal 0 -0 1
    outer loop
      vertex 38.9271 -35.1468 1
      vertex 35.5729 -39.7634 1
      vertex 40.4271 -36.2366 1
    endloop
  endfacet
  facet normal 0 -0 1
    outer loop
      vertex 37.0729 -35.1468 1
      vertex 35.5729 -39.7634 1
      vertex 38.9271 -35.1468 1
    endloop
  endfacet
  facet normal 0 -0 1
    outer loop
      vertex 35.5729 -36.2366 1
      vertex 35.5729 -39.7634 1
      vertex 37.0729 -35.1468 1
    endloop
  endfacet
  facet normal 0 0 1
    outer loop
      vertex 35 -38 1
      vertex 35.5729 -39.7634 1
      vertex 35.5729 -36.2366 1
    endloop
  endfacet
  facet normal 0 0 1
    outer loop
      vertex 35.5729 36.2366 1
      vertex 37.0729 35.1468 1
      vertex 38.9271 35.1468 1
    endloop
  endfacet
  facet normal 0 0 1
    outer loop
      vertex 41 38 1
      vertex 35.5729 36.2366 1
      vertex 40.4271 36.2366 1
    endloop
  endfacet
  facet normal 0 0 1
    outer loop
      vertex 40.4271 36.2366 1
      vertex 35.5729 36.2366 1
      vertex 38.9271 35.1468 1
    endloop
  endfacet
  facet normal 0 -0 1
    outer loop
      vertex 40.4271 39.7634 1
      vertex 35.5729 36.2366 1
      vertex 41 38 1
    endloop
  endfacet
  facet normal 0 -0 1
    outer loop
      vertex 38.9271 40.8532 1
      vertex 35.5729 36.2366 1
      vertex 40.4271 39.7634 1
    endloop
  endfacet
  facet normal 0 -0 1
    outer loop
      vertex 37.0729 40.8532 1
      vertex 35.5729 36.2366 1
      vertex 38.9271 40.8532 1
    endloop
  endfacet
  facet normal 0 -0 1
    outer loop
      vertex 35.5729 39.7634 1
      vertex 35.5729 36.2366 1
      vertex 37.0729 40.8532 1
    endloop
  endfacet
  facet normal 0 0 1
    outer loop
      vertex 35 38 1
      vertex 35.5729 36.2366 1
      vertex 35.5729 39.7634 1
    endloop
  endfacet
endsolid OpenSCAD_Model
